Coordinates
version=1
nRows=27
nColumns=12
inDegrees=yes

Units are S.I. units (second, meters, Newtons, ...)
Angles are in degrees

endheader
time	SC_y	SC_z	SC_x	AC_y	AC_z	AC_x	GH_y	GH_z	GH_yy	EL_x	PS_y
       0.0              -42.15          1.137          72.41           57.5         -3.302        -0.6659         -19.85          11.49         -151.6          39.11          94.61
   0.02059              -42.14          1.137          72.41          57.49           -3.3        -0.6631         -19.86          11.49         -151.5          39.12           94.6
   0.04117              -42.14          1.136          72.41          57.49         -3.298        -0.6601         -19.88          11.49         -151.5          39.12          94.59
   0.06176              -42.14          1.136          72.41          57.49         -3.296        -0.6569         -19.89          11.49         -151.5          39.13          94.57
   0.08234              -42.14          1.136          72.41          57.49         -3.294        -0.6534          -19.9          11.49         -151.5          39.14          94.56
    0.1029              -42.13          1.135          72.41          57.49         -3.292        -0.6498         -19.92          11.49         -151.4          39.15          94.54
    0.1235              -42.13          1.135          72.42          57.49         -3.289        -0.6459         -19.93          11.49         -151.4          39.15          94.53
    0.1441              -42.13          1.134          72.42          57.48         -3.287        -0.6417         -19.95          11.49         -151.4          39.16          94.51
    0.1647              -42.12          1.133          72.42          57.48         -3.284        -0.6373         -19.97          11.49         -151.3          39.17          94.49
    0.1853              -42.12          1.133          72.42          57.48         -3.281        -0.6325         -19.99          11.49         -151.3          39.18          94.47
    0.2059              -42.12          1.132          72.42          57.48         -3.278        -0.6273         -20.01           11.5         -151.3          39.19          94.45
    0.2264              -42.11          1.132          72.43          57.47         -3.274        -0.6218         -20.03           11.5         -151.2           39.2          94.43
     0.247              -42.11          1.131          72.43          57.47          -3.27        -0.6158         -20.06           11.5         -151.2          39.21           94.4
    0.2676               -42.1           1.13          72.43          57.47         -3.266        -0.6094         -20.08           11.5         -151.1          39.23          94.38
    0.2882               -42.1          1.129          72.44          57.46         -3.262        -0.6024         -20.11           11.5         -151.1          39.24          94.35
    0.3088              -42.09          1.128          72.44          57.46         -3.257        -0.5949         -20.14           11.5         -151.0          39.25          94.32
    0.3294              -42.08          1.127          72.44          57.46         -3.252        -0.5866         -20.17           11.5         -150.9          39.27          94.28
    0.3499              -42.08          1.126          72.45          57.45         -3.246        -0.5777         -20.21           11.5         -150.9          39.29          94.25
    0.3705              -42.07          1.125          72.45          57.45          -3.24        -0.5679         -20.25           11.5         -150.8          39.31          94.21
    0.3911              -42.06          1.123          72.46          57.44         -3.233        -0.5572         -20.29           11.5         -150.7          39.33          94.16
    0.4117              -42.05          1.122          72.46          57.44         -3.226        -0.5455         -20.34           11.5         -150.6          39.35          94.11
    0.4323              -42.04           1.12          72.47          57.43         -3.218        -0.5325         -20.39          11.51         -150.5          39.38          94.06
    0.4529              -42.03          1.118          72.47          57.42         -3.209        -0.5182         -20.45          11.51         -150.4          39.41           94.0
    0.4735              -42.02          1.116          72.48          57.41         -3.199        -0.5024         -20.51          11.51         -150.3          39.44          93.94
     0.494               -42.0          1.114          72.49           57.4         -3.188        -0.4848         -20.59          11.51         -150.1          39.47          93.87
    0.5146              -41.99          1.112           72.5          57.39         -3.175        -0.4652         -20.66          11.51         -150.0          39.51          93.78
    0.5352              -41.97          1.109          72.51          57.38         -3.161        -0.4432         -20.75          11.52         -149.8          39.56          93.69
